<svg version="1.1" viewBox="0 0 496 496" xmlns="http://www.w3.org/2000/svg">
  <path d="M 248 0 C 111.10014 0 0 111.10014 0 248 C 0 384.89986 111.10014 496 248 496 C 384.89986 496 496 384.89986 496 248 C 496 111.10014 384.89986 0 248 0 z M 211.5 129.40039 C 284.49993 129.40039 361.00045 144.59925 416.90039 177.19922 C 424.70038 181.69921 429.80078 187.90079 429.80078 199.80078 C 429.80078 213.40077 418.7996 223.09961 406.59961 223.09961 C 401.39961 223.09961 398.19921 221.79922 393.69922 219.19922 C 322.49929 176.69926 195.2007 166.50002 112.80078 189.5 C 109.20078 190.5 104.70039 192.09961 99.900391 192.09961 C 86.700404 192.09961 76.599609 181.79999 76.599609 168.5 C 76.599609 154.90001 85.000009 147.19961 94 144.59961 C 129.19996 134.29962 168.60004 129.40039 211.5 129.40039 z M 206.69922 214.59961 C 271.59915 214.59961 334.29927 230.69964 383.69922 260.09961 C 391.79921 264.8996 395 271.10079 395 279.80078 C 394.9 290.60077 386.4996 299.30078 375.59961 299.30078 C 370.39961 299.30078 366.90078 296.99961 363.30078 295.09961 C 300.80084 258.09965 207.59914 243.19924 124.69922 265.69922 C 119.89922 266.99922 117.30078 268.30078 112.80078 268.30078 C 102.10079 268.30078 93.400391 259.60038 93.400391 248.90039 C 93.400391 238.2004 98.600401 231.09922 108.90039 228.19922 C 136.70036 220.39923 165.09926 214.59961 206.69922 214.59961 z M 209.35352 295.87695 C 260.14546 295.67969 309.57426 306.31253 354.19922 333 C 360.29921 336.9 363.90039 340.40001 363.90039 349.5 C 363.90039 358.59999 356.79921 364.90039 348.69922 364.90039 C 344.49922 364.90039 341.9 363.60078 338 361.30078 C 275.60006 323.70082 203.00071 322.1008 131.30078 336.80078 C 127.40079 337.80078 122.30039 339.40039 119.40039 339.40039 C 109.7004 339.40039 103.59961 331.6996 103.59961 323.59961 C 103.59961 313.29962 109.69923 308.40078 117.19922 306.80078 C 147.91169 300.01329 178.87835 295.99531 209.35352 295.87695 z "/>
</svg>
